<svg width="20" height="20" viewBox="0 0 20 20" xmlns="http://www.w3.org/2000/svg">
<path stroke-width="0.1" d="M10.7221 0.19567C10.5034 0.0675403 10.2546 0 10.0011 0C9.74761 0 9.49872 0.0675403 9.28001 0.19567L0.70709 5.21675C0.492475 5.34289 0.314607 5.52299 0.191163 5.73917C0.0677182 5.95534 0.00299608 6.20006 0.00342876 6.449C0.00386145 6.69794 0.0694338 6.94243 0.193629 7.15817C0.317824 7.37392 0.496317 7.5534 0.711369 7.67879L9.28287 12.6742C9.5009 12.8013 9.74873 12.8682 10.0011 12.8682C10.2534 12.8682 10.5013 12.8013 10.7193 12.6742L19.2908 7.67879C19.506 7.55324 19.6846 7.3735 19.8088 7.15747C19.933 6.94144 19.9984 6.69664 19.9985 6.44747C19.9987 6.19829 19.9335 5.95342 19.8096 5.73724C19.6857 5.52107 19.5073 5.34112 19.2922 5.21532L10.7207 0.194243L10.7221 0.19567ZM9.28001 1.84892C9.49855 1.72106 9.74718 1.65366 10.0004 1.65366C10.2536 1.65366 10.5022 1.72106 10.7207 1.84892L18.5719 6.44635L10.7193 11.0238C10.5013 11.1509 10.2534 11.2178 10.0011 11.2178C9.74873 11.2178 9.5009 11.1509 9.28287 11.0238L1.42887 6.44635L9.28001 1.84892ZM0.116542 9.51462L9.29998 14.6826C9.51341 14.8026 9.75411 14.8656 9.99894 14.8656C10.2438 14.8656 10.4845 14.8026 10.6979 14.6826L19.8813 9.51462C20.0194 9.83479 20.0354 10.1944 19.9263 10.5256C19.8172 10.8567 19.5906 11.1365 19.2894 11.3119L10.7164 16.3073C10.4986 16.4341 10.251 16.5009 9.99894 16.5009C9.74687 16.5009 9.4993 16.4341 9.28144 16.3073L0.708516 11.3119C0.407242 11.1365 0.180666 10.8567 0.0715965 10.5256C-0.0374735 10.1944 -0.0214847 9.83479 0.116542 9.51462ZM0.116542 13.0137L9.29998 18.1803C9.51341 18.3002 9.75411 18.3632 9.99894 18.3632C10.2438 18.3632 10.4845 18.3002 10.6979 18.1803L19.8813 13.0137C20.0194 13.3339 20.0354 13.6935 19.9263 14.0246C19.8172 14.3558 19.5906 14.6355 19.2894 14.811L10.7164 19.8064C10.4986 19.9332 10.251 20 9.99894 20C9.74687 20 9.4993 19.9332 9.28144 19.8064L0.708516 14.811C0.407242 14.6355 0.180666 14.3558 0.0715965 14.0246C-0.0374735 13.6935 -0.0214847 13.3339 0.116542 13.0137Z" />
</svg>
