<svg width="20" height="20" viewBox="0 0 19 22"  xmlns="http://www.w3.org/2000/svg">
<path stroke-width="0.1" d="M5.66667 10.3267H5V11.66H5.66667V10.3267ZM13.6667 11.66H14.3333V10.3267H13.6667V11.66ZM5.66667 13.6667H5V14.3333H5.66667V13.6667ZM13.6667 13.6667V14.3333H14.3333V13.6667H13.6667ZM5.66667 8.33333V7.66667H5V8.33333H5.66667ZM13.6667 8.33333H14.3333V7.66667H13.6667V8.33333ZM17.6667 5.66667H18.3333V5.39067L18.1387 5.19467L17.6667 5.66667ZM13.6667 1.66667L14.1387 1.19467L13.9427 1H13.6667V1.66667ZM5.66667 11.66H13.6667V10.3267H5.66667V11.66ZM5.66667 14.3333H13.6667V13H5.66667V14.3333ZM5.66667 9H13.6667V7.66667H5.66667V9ZM16.3333 19.6667H3V21H16.3333V19.6667ZM2.33333 19V3H1V19H2.33333ZM17 5.66667V19H18.3333V5.66667H17ZM3 2.33333H13.6667V1H3V2.33333ZM13.1947 2.13867L17.1947 6.13867L18.1387 5.19467L14.1387 1.19467L13.1947 2.13867ZM3 19.6667C2.82319 19.6667 2.65362 19.5964 2.5286 19.4714C2.40357 19.3464 2.33333 19.1768 2.33333 19H1C1 19.5304 1.21071 20.0391 1.58579 20.4142C1.96086 20.7893 2.46957 21 3 21V19.6667ZM16.3333 21C16.8638 21 17.3725 20.7893 17.7475 20.4142C18.1226 20.0391 18.3333 19.5304 18.3333 19H17C17 19.1768 16.9298 19.3464 16.8047 19.4714C16.6797 19.5964 16.5101 19.6667 16.3333 19.6667V21ZM2.33333 3C2.33333 2.82319 2.40357 2.65362 2.5286 2.5286C2.65362 2.40357 2.82319 2.33333 3 2.33333V1C2.46957 1 1.96086 1.21071 1.58579 1.58579C1.21071 1.96086 1 2.46957 1 3H2.33333ZM5 8.33333V13.6667H6.33333V8.33333H5ZM9 8.33333V13.6667H10.3333V8.33333H9ZM13 8.33333V13.6667H14.3333V8.33333H13ZM5 6.33333H9V5H5V6.33333ZM10.3333 17H14.3333V15.6667H10.3333V17Z" />
</svg>
