<svg width="20" height="20" viewBox="0 0 20 20"  xmlns="http://www.w3.org/2000/svg">
<path stroke-width="0.1" d="M0 4.16667C0 3.0616 0.438987 2.00179 1.22039 1.22039C2.00179 0.438987 3.0616 0 4.16667 0H15.8333C16.9384 0 17.9982 0.438987 18.7796 1.22039C19.561 2.00179 20 3.0616 20 4.16667V15.8333C20 16.9384 19.561 17.9982 18.7796 18.7796C17.9982 19.561 16.9384 20 15.8333 20H4.16667C3.0616 20 2.00179 19.561 1.22039 18.7796C0.438987 17.9982 0 16.9384 0 15.8333V4.16667ZM4.16667 1.66667C3.50363 1.66667 2.86774 1.93006 2.3989 2.3989C1.93006 2.86774 1.66667 3.50363 1.66667 4.16667V9.16667H9.16667V1.66667H4.16667ZM10.8333 1.66667V9.16667H18.3333V4.16667C18.3333 3.50363 18.0699 2.86774 17.6011 2.3989C17.1323 1.93006 16.4964 1.66667 15.8333 1.66667H10.8333ZM18.3333 10.8333H10.8333V18.3333H15.8333C16.4964 18.3333 17.1323 18.0699 17.6011 17.6011C18.0699 17.1323 18.3333 16.4964 18.3333 15.8333V10.8333ZM9.16667 18.3333V10.8333H1.66667V15.8333C1.66667 16.4964 1.93006 17.1323 2.3989 17.6011C2.86774 18.0699 3.50363 18.3333 4.16667 18.3333H9.16667Z"/>
</svg>
