<svg width="20" height="20" viewBox="0 0 22 22"  xmlns="http://www.w3.org/2000/svg">
<path d="M10.9824 20.9999C10.4802 20.9966 9.99953 20.7954 9.64477 20.4399L1.56046 12.3518C1.2016 11.9929 1 11.5062 1 10.9986C1 10.4911 1.2016 10.0043 1.56046 9.64539L9.64477 1.56109C9.82251 1.38321 10.0336 1.2421 10.2659 1.14583C10.4982 1.04955 10.7472 1 10.9986 1C11.2501 1 11.4991 1.04955 11.7314 1.14583C11.9637 1.2421 12.1747 1.38321 12.3525 1.56109L20.4393 9.64664C20.619 9.82604 20.7612 10.0395 20.8573 10.2746C20.9535 10.5096 21.0018 10.7615 20.9993 11.0155C20.996 11.5177 20.7947 11.9983 20.4393 12.3531L12.3512 20.4399C12.172 20.6195 11.9587 20.7615 11.7238 20.8577C11.489 20.9539 11.2374 21.0022 10.9836 20.9999H10.9824ZM10.5473 2.46115L6.95583 6.0539L10.9986 10.0967L15.0414 6.0539L11.4499 2.46115C11.3907 2.40181 11.3203 2.35473 11.2429 2.3226C11.1655 2.29048 11.0824 2.27395 10.9986 2.27395C10.9148 2.27395 10.8318 2.29048 10.7543 2.3226C10.6769 2.35473 10.6065 2.40181 10.5473 2.46115ZM11.9012 10.9992L15.9439 15.042L19.5354 11.4505C19.7855 11.2005 19.7855 10.7967 19.5354 10.548L15.9439 6.95646L11.9012 10.9992ZM10.9986 11.9018L6.95583 15.9446L10.5473 19.5361C10.7973 19.7861 11.2011 19.7861 11.4499 19.5361L15.0414 15.9446L10.9986 11.9018ZM10.096 10.9992L6.05327 6.95646L2.46052 10.548C2.34098 10.6677 2.27384 10.83 2.27384 10.9992C2.27384 11.1685 2.34098 11.3308 2.46052 11.4505L6.05327 15.042L10.096 10.9992Z" stroke-width="0.1"/>
</svg>
