<svg width="20" height="20" viewBox="0 0 28 22" xmlns="http://www.w3.org/2000/svg">
<path d="M17.313 0.000461238C16.758 0.00446124 16.207 0.0314615 15.625 0.187462C14.991 0.359567 14.3894 0.63419 13.844 1.00046C13.078 0.550461 12.336 0.180461 11.625 0.0934612C10.742 -0.0155388 9.922 0.0434614 8.969 0.0634614C7.839 0.0864614 7.102 0.663461 5.906 1.12546C4.711 1.58546 3.172 2.03146 1 2.03146H0V11.6565L0.563 11.9375L2.406 12.8445L8.969 20.1565L9 20.1875C9.75 20.9295 10.762 21.1135 11.656 21.0625C12.551 21.0125 13.391 20.7505 14.062 20.3445C15.539 19.4535 19.562 16.6565 19.562 16.6565L19.656 16.5935L19.719 16.5315C20.195 16.0585 20.434 15.4815 20.594 14.8755L24.437 12.9375L27.312 11.9695L28 11.7495V2.03146H27C25.319 2.04295 23.6522 1.72426 22.094 1.09346C20.898 0.626462 20.172 0.0554614 19.03 0.0314614C18.42 0.0194614 17.866 -0.00353876 17.312 0.000461238H17.313ZM17.343 2.00046C17.793 1.99646 18.313 2.02046 18.969 2.03146C19.074 2.03546 20.035 2.44546 21.375 2.96946C22.508 3.41446 24.082 3.80946 26 3.93746V10.3125L23.687 11.0945H23.625L23.562 11.1245L20.532 12.6565C20.3712 12.1924 20.1158 11.7668 19.782 11.4065L19.719 11.3125L15.469 6.09446L14.844 5.31246L14.062 5.93746L11.375 8.12546C10.473 8.75046 9.742 8.57046 9 8.21946C8.785 8.11746 8.797 8.08646 8.625 7.96946L13.188 4.18746L13.25 4.12546C14.605 2.78146 15.438 2.31646 16.156 2.12546C16.516 2.02746 16.895 2.00446 17.344 2.00046H17.343ZM10.376 2.03146C10.7097 2.01889 11.0438 2.02924 11.376 2.06246C11.638 2.09346 11.935 2.31646 12.189 2.40646C12.087 2.50046 12.013 2.55446 11.907 2.65646L11.845 2.71946L6.376 7.24946L5.532 7.93746L6.282 8.71846C6.282 8.71846 7.005 9.50046 8.126 10.0315C9.247 10.5625 10.978 10.8635 12.532 9.78146L12.595 9.71846L14.532 8.12546L18.22 12.6565L18.251 12.7195L18.282 12.7495C18.942 13.4025 18.927 14.4295 18.282 15.0945C18.274 15.1015 18.29 15.1175 18.282 15.1245C18.274 15.1295 18.142 15.2075 18.126 15.2195L16.813 13.4375L15.188 14.6255L16.47 16.3435C15.95 16.6955 15.716 16.8795 15.157 17.2505L13.814 15.4375L12.188 16.6255L13.47 18.3435C13.356 18.4135 13.122 18.5705 13.032 18.6255C12.716 18.8165 12.106 19.0315 11.563 19.0625C11.052 19.0905 10.661 18.9725 10.47 18.8125L10.439 18.7815L3.751 11.3755L3.626 11.2185L2 10.4065V3.93746C3.91 3.81246 5.496 3.43346 6.625 3.00046C7.961 2.48846 8.915 2.06646 9.031 2.06246L10.375 2.03146H10.376Z" stroke-width="0.1" />
</svg>
